<?xml version="1.0" encoding="UTF-8"?><svg xmlns="http://www.w3.org/2000/svg" xmlns:ev="http://www.w3.org/2001/xml-events" xmlns:v="http://schemas.microsoft.com/visio/2003/SVGExtensions/" xmlns:xlink="http://www.w3.org/1999/xlink" width="9.67346in" height="2.47452in" viewBox="0 0 696.489 178.165" xml:space="preserve" color-interpolation-filters="sRGB" class="st19" preserveAspectRatio="xMidYMid meet" zoomAndPan="magnify" version="1.1" contentScriptType="text/ecmascript" contentStyleType="text/css"><v:documentProperties v:langID="1033" v:metric="true" v:viewMarkup="false"/><style type="text/css" xml:space="preserve"><![CDATA[
		.st1 {fill:#ffffff;stroke:#000000;stroke-width:0.5}
		.st2 {fill:none;stroke:#000000;stroke-width:0.5}
		.st3 {fill:none;stroke:none;stroke-linecap:round;stroke-linejoin:round;stroke-width:0.75}
		.st4 {fill:#000000;font-family:Source Sans Pro;font-size:0.75em}
		.st5 {fill:#000000;font-family:Source Sans Pro;font-size:0.75em;font-weight:bold}
		.st6 {marker-end:url(#mrkr5-22);stroke:#000000;stroke-width:0.5}
		.st7 {fill:#000000;fill-opacity:1;stroke:#000000;stroke-opacity:1;stroke-width:0.16556291390728}
		.st8 {font-size:1em}
		.st9 {marker-end:url(#mrkr4-36);stroke:#000000;stroke-width:0.5}
		.st10 {fill:#000000;font-family:Source Sans Pro;font-size:0.666664em}
		.st11 {marker-start:url(#mrkr4-59);stroke:#000000;stroke-width:0.5}
		.st12 {fill:none;stroke:none;stroke-width:0.5}
		.st13 {stroke:#000000;stroke-dasharray:0.01,2.5;stroke-width:0.5}
		.st14 {stroke:#000000;stroke-dasharray:0.01,3.75;stroke-width:0.75}
		.st15 {fill:#ffffff;stroke:#000000;stroke-linecap:butt;stroke-width:0.5}
		.st16 {stroke:#000000;stroke-linecap:butt;stroke-width:0.5}
		.st17 {font-size:1em;font-weight:normal}
		.st18 {marker-start:url(#mrkr4-59);stroke:#000000;stroke-linecap:butt;stroke-width:0.5}
		.st19 {fill:none;fill-rule:evenodd;font-size:12px;overflow:visible;stroke-linecap:square;stroke-miterlimit:3}
		]]></style><defs id="Markers"><g id="lend5"><path d="M 2 1 L 0 0 L 1.98117 -0.993387 C 1.67173 -0.364515 1.67301 0.372641 1.98465 1.00043 " style="stroke:none"/></g><marker id="mrkr5-22" class="st7" v:arrowType="5" v:arrowSize="2" v:setback="10.57" refX="-10.57" orient="auto" markerUnits="strokeWidth" overflow="visible" preserveAspectRatio="xMidYMid meet"><use xlink:href="#lend5" transform="scale(-6.04,-6.04) " xlink:type="simple" xlink:show="embed" xlink:actuate="onLoad"/></marker><g id="lend4"><path d="M 2 1 L 0 0 L 2 -1 L 2 1 " style="stroke:none"/></g><marker id="mrkr4-36" class="st7" v:arrowType="4" v:arrowSize="2" v:setback="12.08" refX="-12.08" orient="auto" markerUnits="strokeWidth" overflow="visible" preserveAspectRatio="xMidYMid meet"><use xlink:href="#lend4" transform="scale(-6.04,-6.04) " xlink:type="simple" xlink:show="embed" xlink:actuate="onLoad"/></marker><marker id="mrkr4-59" class="st7" v:arrowType="4" v:arrowSize="2" v:setback="11.36" refX="11.36" orient="auto" markerUnits="strokeWidth" overflow="visible" preserveAspectRatio="xMidYMid meet"><use xlink:href="#lend4" transform="scale(6.04) " xlink:type="simple" xlink:show="embed" xlink:actuate="onLoad"/></marker></defs><g v:mID="0" v:index="1" v:groupContext="foregroundPage"><title>Page-1</title><v:pageProperties v:drawingScale="0.0393701" v:pageScale="0.0393701" v:drawingUnits="24" v:shadowOffsetX="8.50394" v:shadowOffsetY="-8.50394"/><v:layer v:name="Connector" v:index="0"/><g id="group106-1" transform="translate(0.5,-0.5)" v:mID="106" v:groupContext="group"><title>Sheet.106</title><g id="shape3-2" v:mID="3" v:groupContext="shape" transform="translate(107.15,-70.8661)"><title>Sheet.3</title><rect x="0" y="71.8661" width="270.709" height="106.299" class="st1"/></g><g id="shape4-4" v:mID="4" v:groupContext="shape" transform="translate(207.75,-94.8661)"><title>Sheet.4</title><path d="M0 150.83 L18.22 150.83 L27.34 164.5 L18.22 178.17 L0 178.17 L0 150.83 Z" class="st2"/></g><g id="shape5-6" v:mID="5" v:groupContext="shape" transform="translate(258,-94.8458)"><title>Sheet.5</title><path d="M0 123.38 L31.31 150.77 L0 178.17 L0 123.38 Z" class="st2"/></g><g id="shape6-8" v:mID="6" v:groupContext="shape" transform="translate(234.562,-76.0314)"><title>Sheet.6</title><desc>Comparator</desc><v:textBlock v:margins="rect(4,4,4,4)" v:tabSpace="42.5197"/><v:textRect cx="37.1193" cy="170.339" width="74.24" height="15.6527"/><rect x="0" y="162.513" width="74.2385" height="15.6527" class="st3"/><text x="14.26" y="173.04" class="st4" v:langID="1033"><v:paragraph v:horizAlign="1"/><v:tabList/>Comparator</text></g><g id="shape7-11" v:mID="7" v:groupContext="shape" transform="translate(202.583,-100.176)"><title>Sheet.7</title><desc>DAC</desc><v:textBlock v:margins="rect(4,4,4,4)" v:tabSpace="42.5197"/><v:textRect cx="15.6527" cy="170.339" width="31.31" height="15.6527"/><rect x="0" y="162.513" width="31.3053" height="15.6527" class="st3"/><text x="7.87" y="173.04" class="st4" v:langID="1033"><v:paragraph v:horizAlign="1"/><v:tabList/>DAC</text></g><g id="shape8-14" v:mID="8" v:groupContext="shape" transform="translate(180.701,-155.16)"><title>Sheet.8</title><desc>HPPASS CSG slice</desc><v:textBlock v:margins="rect(4,4,4,4)" v:tabSpace="42.5197"/><v:textRect cx="60.6541" cy="169.235" width="121.31" height="17.8612"/><rect x="0" y="160.304" width="121.308" height="17.8612" class="st3"/><text x="25.93" y="171.93" class="st5" v:langID="1033"><v:paragraph v:horizAlign="1"/><v:tabList/>HPPASS CSG slice</text></g><g id="shape9-17" v:mID="9" v:groupContext="shape" transform="translate(289.77,-122.349)"><title>Sheet.9</title><path d="M0 178.17 L29.45 178.17" class="st6"/></g><g id="shape10-23" v:mID="10" v:groupContext="shape" transform="translate(325.417,-102.379)"><title>Sheet.10</title><desc>Post processing</desc><v:textBlock v:margins="rect(4,4,4,4)" v:tabSpace="42.5197"/><v:textRect cx="24.6614" cy="158.63" width="49.33" height="39.0712"/><rect x="0" y="139.094" width="49.3228" height="39.0712" class="st1"/><text x="16.27" y="155.93" class="st4" v:langID="1033"><v:paragraph v:horizAlign="1"/><v:tabList/>Post <tspan x="4.27" class="st8" dy="1.2em">processing</tspan></text></g><g id="shape11-27" v:mID="11" v:groupContext="shape" transform="translate(109.984,-87.874)"><title>Sheet.11</title><desc>Ramp generation</desc><v:textBlock v:margins="rect(4,4,4,4)" v:tabSpace="42.5197"/><v:textRect cx="25.3295" cy="159.74" width="50.66" height="36.8504"/><rect x="0" y="141.315" width="50.659" height="36.8504" class="st1"/><text x="14.27" y="157.04" class="st4" v:langID="1033"><v:paragraph v:horizAlign="1"/><v:tabList/>Ramp <tspan x="4.78" class="st8" dy="1.2em">generation</tspan></text></g><g id="shape12-31" v:mID="12" v:groupContext="shape" transform="translate(160.819,-107.445)"><title>Sheet.12</title><path d="M0 178.17 L40.7 178.17" class="st9"/></g><g id="shape13-37" v:mID="13" v:groupContext="shape" transform="translate(282.44,-121.615)"><title>Sheet.13</title><desc>CMP OUT</desc><v:textBlock v:margins="rect(4,4,4,4)" v:tabSpace="42.5197"/><v:textRect cx="21.8988" cy="170.339" width="43.8" height="15.6527"/><rect x="0" y="162.513" width="43.7976" height="15.6527" class="st3"/><text x="6.26" y="172.74" class="st10" v:langID="1033"><v:paragraph v:horizAlign="1"/><v:tabList/>CMP OUT</text></g><g id="shape14-40" v:mID="14" v:groupContext="shape" transform="translate(374.551,-121.26)"><title>Sheet.14</title><desc>tr_level_out</desc><v:textBlock v:margins="rect(4,4,4,4)" v:tabSpace="42.5197"/><v:textRect cx="18.3986" cy="168.15" width="36.8" height="20.0315"/><rect x="0" y="158.134" width="36.7972" height="20.0315" class="st3"/><text x="5.78" y="165.75" class="st10" v:langID="1033"><v:paragraph v:horizAlign="1"/><v:tabList/>tr_level<tspan x="10.7" class="st8" dy="1.2em">_out</tspan></text></g><g id="shape16-44" v:mID="16" v:groupContext="shape" transform="translate(155.796,-99.2126)"><title>Sheet.16</title><desc>10-bit DAC value</desc><v:textBlock v:margins="rect(4,4,4,4)" v:tabSpace="42.5197"/><v:textRect cx="25.7798" cy="170.427" width="51.56" height="15.4759"/><rect x="0" y="162.689" width="51.5596" height="15.4759" class="st3"/><text x="8.29" y="168.03" class="st10" v:langID="1033"><v:paragraph v:horizAlign="1"/><v:tabList/>10-bit DAC <tspan x="16.72" class="st8" dy="1.2em">value</tspan></text></g><g id="shape20-48" v:mID="20" v:groupContext="shape" transform="translate(255.591,-127.748)"><title>Sheet.20</title><desc>+</desc><v:textBlock v:margins="rect(4,4,4,4)" v:tabSpace="42.5197"/><v:textRect cx="7.93174" cy="172.296" width="15.87" height="11.7395"/><rect x="0" y="166.426" width="15.8635" height="11.7395" class="st3"/><text x="4" y="175" class="st4" v:langID="1033"><v:paragraph/><v:tabList/>+</text></g><g id="shape21-51" v:mID="21" v:groupContext="shape" transform="translate(257.291,-102.331)"><title>Sheet.21</title><desc>-</desc><v:textBlock v:margins="rect(4,4,4,4)" v:tabSpace="42.5197"/><v:textRect cx="7.93174" cy="172.296" width="15.87" height="11.7395"/><rect x="0" y="166.426" width="15.8635" height="11.7395" class="st3"/><text x="4" y="175" class="st4" v:langID="1033"><v:paragraph/><v:tabList/>-</text></g><g id="shape22-54" v:mID="22" v:groupContext="shape" v:layerMember="0" transform="translate(258.52,-130.677)"><title>Dynamic connector</title><path d="M-5.68 171.08 L-6.04 171.08 L-147.69 171.08" class="st11"/></g><g id="shape23-60" v:mID="23" v:groupContext="shape" v:layerMember="0" transform="translate(258.236,-101.618)"><title>Dynamic connector.81</title><path d="M-5.68 171.08 L-6.04 171.08 L-23.24 171.08" class="st11"/></g><g id="shape29-65" v:mID="29" v:groupContext="shape" transform="translate(401.953,-155.339)"><title>Rectangle.15</title><desc>Trigger multiplexer</desc><v:textBlock v:margins="rect(4,4,4,4)" v:tabSpace="42.5197"/><v:textRect cx="32.3421" cy="168.034" width="64.69" height="20.2626"/><rect x="0" y="157.903" width="64.6841" height="20.2626" class="st12"/><text x="20.42" y="165.63" class="st10" v:langID="1033"><v:paragraph v:horizAlign="1"/><v:tabList/>Trigger <tspan x="13.11" class="st8" dy="1.2em">multiplexer</tspan></text></g><g id="shape37-69" v:mID="37" v:groupContext="shape" transform="translate(454.299,-123.024)"><title>Sheet.37</title><path d="M0 178.17 L18.75 178.17" class="st9"/></g><g id="shape38-74" v:mID="38" v:groupContext="shape" transform="translate(638.929,-115.654)"><title>Sheet.38</title><desc>USER LED</desc><v:textBlock v:margins="rect(4,4,4,4)" v:tabSpace="42.5197"/><v:textRect cx="28.2801" cy="167.686" width="56.57" height="20.9581"/><rect x="0" y="157.207" width="56.5602" height="20.9581" class="st1"/><text x="9.82" y="170.39" class="st4" v:langID="1033"><v:paragraph v:horizAlign="1"/><v:tabList/>USER LED</text></g><g id="shape39-77" v:mID="39" v:groupContext="shape" transform="translate(375.307,-121.702)"><title>Sheet.39</title><path d="M0 178.17 L31.4 178.17" class="st9"/></g><g id="shape41-82" v:mID="41" v:groupContext="shape" transform="translate(413.858,-98.0787)"><title>Rectangle.436</title><v:userDefs>
					<v:ud v:nameU="visVersion" v:val="VT0(15):26"/>
				</v:userDefs><rect x="0" y="128.078" width="40.0488" height="50.087" class="st1"/></g><g id="shape42-84" v:mID="42" v:groupContext="shape" transform="translate(415.74,-112.996)"><title>Sheet.42</title><path d="M0 178.17 L10.29 178.17" class="st9"/></g><g id="shape43-89" v:mID="43" v:groupContext="shape" transform="translate(435.056,-100.489)"><title>Sheet.43</title><path d="M0 141.64 L0 178.17 L7.09 173.6 L7.09 147.92 L0 141.64 Z" class="st1"/></g><g id="shape44-91" v:mID="44" v:groupContext="shape" transform="translate(432.19,-105.79)"><title>Sheet.44</title><path d="M0 141.64 L0 178.17 L7.09 173.6 L7.09 147.92 L0 141.64 Z" class="st1"/></g><g id="shape45-93" v:mID="45" v:groupContext="shape" transform="translate(416.298,-139.932)"><title>Sheet.45</title><path d="M0 178.17 L10.1 178.17" class="st9"/></g><g id="shape46-98" v:mID="46" v:groupContext="shape" transform="translate(344.477,224.01) rotate(-147.653)"><title>Sheet.46</title><path d="M0 178.17 L5.23 178.17" class="st13"/></g><g id="shape47-101" v:mID="47" v:groupContext="shape" transform="translate(242.524,57.8217) rotate(-90)"><title>Sheet.47</title><path d="M0 178.17 L12.3 178.17" class="st14"/></g><g id="shape49-104" v:mID="49" v:groupContext="shape" transform="translate(479.458,-74.5959)"><title>Rectangle.450</title><v:userDefs>
					<v:ud v:nameU="visVersion" v:val="VT0(15):26"/>
				</v:userDefs><rect x="0" y="75.8346" width="85.0394" height="102.331" class="st1"/></g><g id="group50-106" transform="translate(103.619,-134.77)" v:mID="50" v:groupContext="group"><title>Chip pin.454</title><g id="shape51-107" v:mID="51" v:groupContext="shape" transform="translate(0,-1.82028E-07)"><title>Sheet.51</title><rect x="0" y="171.326" width="6.83979" height="6.83979" class="st15"/></g><g id="shape52-109" v:mID="52" v:groupContext="shape" transform="translate(125.982,45.3436) rotate(45)"><title>Sheet.52</title><path d="M0 178.17 L9.67 178.17" class="st16"/></g><g id="shape53-112" v:mID="53" v:groupContext="shape" transform="translate(-125.982,52.1834) rotate(-45)"><title>Sheet.53</title><path d="M0 178.17 L9.67 178.17" class="st16"/></g></g><g id="shape54-115" v:mID="54" v:groupContext="shape" transform="translate(-2.79776E-14,-126.52)"><title>Sheet.54</title><desc>Potentiometer</desc><v:textBlock v:margins="rect(4,4,4,4)" v:tabSpace="42.5197"/><v:textRect cx="32.5984" cy="167.686" width="65.2" height="20.9581"/><rect x="0" y="157.207" width="65.1968" height="20.9581" class="st1"/><text x="5.05" y="170.39" class="st4" v:langID="1033"><v:paragraph v:horizAlign="1"/><v:tabList/>Potentiometer</text></g><g id="shape56-118" v:mID="56" v:groupContext="shape" transform="translate(474.331,-117.732)"><title>Sheet.56</title><desc>Kill 0 signal</desc><v:textBlock v:margins="rect(4,4,4,4)" v:tabSpace="42.5197"/><v:textRect cx="24.5271" cy="172.459" width="49.06" height="11.4132"/><rect x="0" y="166.752" width="49.0543" height="11.4132" class="st3"/><text x="5.7" y="174.86" class="st10" v:langID="1033"><v:paragraph v:horizAlign="1"/><v:tabList/>Kill 0 signal</text></g><g id="shape57-121" v:mID="57" v:groupContext="shape" transform="translate(477.22,-135.765)"><title>Rectangle.57</title><desc>TCPWM (USER_PWM)</desc><v:textBlock v:margins="rect(4,4,4,4)" v:tabSpace="42.5197"/><v:textRect cx="42.5197" cy="162.291" width="85.04" height="31.748"/><rect x="0" y="146.417" width="85.0394" height="31.748" class="st12"/><text x="27.63" y="157.79" class="st5" v:langID="1033"><v:paragraph v:horizAlign="1"/><v:tabList/>TCPWM<v:newlineChar/><tspan x="17.95" class="st17" dy="1.5em">(USER_PWM)</tspan></text></g><g id="shape72-125" v:mID="72" v:groupContext="shape" transform="translate(581.281,-100.705)"><title>Rectangle.72</title><v:userDefs>
					<v:ud v:nameU="visVersion" v:val="VT0(15):26"/>
				</v:userDefs><rect x="0" y="128.078" width="40.0488" height="50.087" class="st1"/></g><g id="shape73-127" v:mID="73" v:groupContext="shape" transform="translate(583.163,-115.622)"><title>Sheet.73</title><path d="M0 178.17 L10.29 178.17" class="st9"/></g><g id="shape74-132" v:mID="74" v:groupContext="shape" transform="translate(602.479,-103.115)"><title>Sheet.74</title><path d="M0 141.64 L0 178.17 L7.09 173.6 L7.09 147.92 L0 141.64 Z" class="st1"/></g><g id="shape75-134" v:mID="75" v:groupContext="shape" transform="translate(599.613,-108.416)"><title>Sheet.75</title><path d="M0 141.64 L0 178.17 L7.09 173.6 L7.09 147.92 L0 141.64 Z" class="st1"/></g><g id="shape76-136" v:mID="76" v:groupContext="shape" transform="translate(583.721,-142.558)"><title>Sheet.76</title><path d="M0 178.17 L10.1 178.17" class="st9"/></g><g id="shape77-141" v:mID="77" v:groupContext="shape" transform="translate(511.9,221.385) rotate(-147.653)"><title>Sheet.77</title><path d="M0 178.17 L5.23 178.17" class="st13"/></g><g id="shape78-144" v:mID="78" v:groupContext="shape" transform="translate(409.947,55.196) rotate(-90)"><title>Sheet.78</title><path d="M0 178.17 L12.3 178.17" class="st14"/></g><g id="shape79-147" v:mID="79" v:groupContext="shape" transform="translate(521.232,-117.489)"><title>Sheet.79</title><desc>PWM (line)</desc><v:textBlock v:margins="rect(4,4,4,4)" v:tabSpace="42.5197"/><v:textRect cx="24.5271" cy="172.459" width="49.06" height="11.4132"/><rect x="0" y="166.752" width="49.0543" height="11.4132" class="st3"/><text x="6.81" y="174.86" class="st10" v:langID="1033"><v:paragraph v:horizAlign="1"/><v:tabList/>PWM (line)</text></g><g id="shape80-150" v:mID="80" v:groupContext="shape" transform="translate(570.709,-156.283)"><title>Rectangle.80</title><desc>Trigger multiplexer</desc><v:textBlock v:margins="rect(4,4,4,4)" v:tabSpace="42.5197"/><v:textRect cx="32.3421" cy="168.034" width="64.69" height="20.2626"/><rect x="0" y="157.903" width="64.6841" height="20.2626" class="st12"/><text x="20.42" y="165.63" class="st10" v:langID="1033"><v:paragraph v:horizAlign="1"/><v:tabList/>Trigger <tspan x="13.11" class="st8" dy="1.2em">multiplexer</tspan></text></g><g id="shape81-154" v:mID="81" v:groupContext="shape" transform="translate(564.85,-125.321)"><title>Sheet.81</title><path d="M0 178.17 L10.39 178.17" class="st9"/></g><g id="shape82-159" v:mID="82" v:groupContext="shape" transform="translate(621.712,-125.73)"><title>Sheet.82</title><path d="M0 178.17 L10.82 178.17" class="st9"/></g><g id="shape90-164" v:mID="90" v:groupContext="shape" transform="translate(109.348,214.234) rotate(177.839)"><title>Sheet.90</title><path d="M5.1 177.3 L5.43 177.46 C7.16 178.22 8.89 178.58 9.94 177.49 C11.58 175.81 11.61 170.64 13.09 168.55 C14.83         166.09 18.6 167.94 22.05 170.42 C25.7 173.04 28.99 176.37 31.36 176.8 C34.69 177.4 36.22 172.29 37.59         174.81" class="st18"/></g><g id="shape91-169" v:mID="91" v:groupContext="shape" transform="translate(451.251,5.68434E-14) scale(-1,1)"><title>Rectangle.91</title><v:userDefs>
					<v:ud v:nameU="visVersion" v:val="VT0(15):26"/>
				</v:userDefs><rect x="0" y="128.078" width="40.0488" height="50.087" class="st1"/></g><g id="shape92-171" v:mID="92" v:groupContext="shape" transform="translate(449.37,-14.9176) scale(-1,1)"><title>Sheet.92</title><v:textBlock v:margins="rect(4,4,4,4)" v:tabSpace="42.5197"/><path d="M0 178.17 L10.29 178.17" class="st9"/></g><g id="shape93-176" v:mID="93" v:groupContext="shape" transform="translate(430.054,-2.41016) scale(-1,1)"><title>Sheet.93</title><path d="M0 141.64 L0 178.17 L7.09 173.6 L7.09 147.92 L0 141.64 Z" class="st1"/></g><g id="shape94-178" v:mID="94" v:groupContext="shape" transform="translate(432.919,-7.71111) scale(-1,1)"><title>Sheet.94</title><path d="M0 141.64 L0 178.17 L7.09 173.6 L7.09 147.92 L0 141.64 Z" class="st1"/></g><g id="shape95-180" v:mID="95" v:groupContext="shape" transform="translate(448.811,-41.8533) scale(-1,1)"><title>Sheet.95</title><path d="M0 178.17 L10.1 178.17" class="st9"/></g><g id="shape96-185" v:mID="96" v:groupContext="shape" transform="translate(520.633,322.089) rotate(-32.3474) scale(1,-1)"><title>Sheet.96</title><path d="M0 178.17 L5.23 178.17" class="st13"/></g><g id="shape97-188" v:mID="97" v:groupContext="shape" transform="translate(622.586,155.9) rotate(90) scale(-1,1)"><title>Sheet.97</title><path d="M0 178.17 L12.3 178.17" class="st14"/></g><g id="shape99-191" v:mID="99" v:groupContext="shape" v:layerMember="0" transform="translate(523.559,-74.5512)"><title>Dynamic connector.99</title><path d="M0 178.17 L0 227.2 L-65.96 227.2" class="st9"/></g><g id="shape101-196" v:mID="101" v:groupContext="shape" transform="translate(504.64,-74.5237)"><title>Sheet.101</title><desc>Overflow event</desc><v:textBlock v:margins="rect(4,4,4,4)" v:tabSpace="42.5197"/><v:textRect cx="20.6563" cy="168.15" width="41.32" height="20.0315"/><rect x="0" y="158.134" width="41.3127" height="20.0315" class="st3"/><text x="5.53" y="165.75" class="st10" v:langID="1033"><v:paragraph v:horizAlign="1"/><v:tabList/>Overflow <tspan x="11.28" class="st8" dy="1.2em">event</tspan></text></g><g id="shape102-200" v:mID="102" v:groupContext="shape" v:layerMember="0" transform="translate(409.039,-25.5118)"><title>Dynamic connector.102</title><path d="M0 178.17 L-269.29 178.17 L-269.29 121.84" class="st9"/></g><g id="shape103-205" v:mID="103" v:groupContext="shape" transform="translate(399.027,-53.9497)"><title>Rectangle.103</title><desc>Trigger multiplexer</desc><v:textBlock v:margins="rect(4,4,4,4)" v:tabSpace="42.5197"/><v:textRect cx="32.3421" cy="168.034" width="64.69" height="20.2626"/><rect x="0" y="157.903" width="64.6841" height="20.2626" class="st12"/><text x="20.42" y="165.63" class="st10" v:langID="1033"><v:paragraph v:horizAlign="1"/><v:tabList/>Trigger <tspan x="13.11" class="st8" dy="1.2em">multiplexer</tspan></text></g><g id="shape104-209" v:mID="104" v:groupContext="shape" transform="translate(131.107,-68.5801)"><title>Rectangle.104</title><desc>Input trigger</desc><v:textBlock v:margins="rect(4,4,4,4)" v:tabSpace="42.5197"/><v:textRect cx="32.3421" cy="168.034" width="64.69" height="20.2626"/><rect x="0" y="157.903" width="64.6841" height="20.2626" class="st12"/><text x="11.43" y="170.43" class="st10" v:langID="1033"><v:paragraph v:horizAlign="1"/><v:tabList/>Input trigger</text></g><g id="shape105-212" v:mID="105" v:groupContext="shape" transform="translate(162.654,-26.0605)"><title>Rectangle.105</title><desc>Trigger CSG DAC start</desc><v:textBlock v:margins="rect(4,4,4,4)" v:tabSpace="42.5197"/><v:textRect cx="43.3884" cy="168.034" width="86.78" height="20.2626"/><rect x="0" y="157.903" width="86.7767" height="20.2626" class="st12"/><text x="7.48" y="170.43" class="st10" v:langID="1033"><v:paragraph v:horizAlign="1"/><v:tabList/>Trigger CSG DAC start</text></g></g></g></svg>