<?xml version="1.0" encoding="UTF-8"?><svg xmlns="http://www.w3.org/2000/svg" xmlns:ev="http://www.w3.org/2001/xml-events" xmlns:v="http://schemas.microsoft.com/visio/2003/SVGExtensions/" xmlns:xlink="http://www.w3.org/1999/xlink" width="7.33499in" height="3.31924in" viewBox="0 0 528.119 238.985" xml:space="preserve" color-interpolation-filters="sRGB" class="st14" preserveAspectRatio="xMidYMid meet" zoomAndPan="magnify" version="1.1" contentScriptType="text/ecmascript" contentStyleType="text/css"><v:documentProperties v:langID="1033" v:metric="true" v:viewMarkup="false"/><style type="text/css" xml:space="preserve"><![CDATA[
		.st1 {stroke:#000000;stroke-dasharray:3.5,2.5;stroke-width:0.5}
		.st2 {stroke:#be3283;stroke-width:0.5}
		.st3 {fill:none;stroke:none;stroke-linecap:round;stroke-linejoin:round;stroke-width:0.75}
		.st4 {fill:#000000;font-family:Source Sans Pro;font-size:0.75em}
		.st5 {font-size:1em}
		.st6 {marker-end:url(#mrkr5-42);stroke:#000000;stroke-width:0.5}
		.st7 {fill:#000000;fill-opacity:1;stroke:#000000;stroke-opacity:1;stroke-width:0.16556291390728}
		.st8 {stroke:#3b9b91;stroke-width:0.5}
		.st9 {stroke:#000000;stroke-width:0.5}
		.st10 {stroke:#f97414;stroke-width:0.75}
		.st11 {marker-start:url(#mrkr5-105);stroke:#000000;stroke-dasharray:4,2;stroke-linecap:butt;stroke-width:0.5}
		.st12 {marker-end:url(#mrkr5-42);marker-start:url(#mrkr5-105);stroke:#000000;stroke-width:0.5}
		.st13 {fill:#ffffff;stroke:none;stroke-linecap:butt;stroke-width:7.2}
		.st14 {fill:none;fill-rule:evenodd;font-size:12px;overflow:visible;stroke-linecap:square;stroke-miterlimit:3}
		]]></style><defs id="Markers"><g id="lend5"><path d="M 2 1 L 0 0 L 1.98117 -0.993387 C 1.67173 -0.364515 1.67301 0.372641 1.98465 1.00043 " style="stroke:none"/></g><marker id="mrkr5-42" class="st7" v:arrowType="5" v:arrowSize="2" v:setback="10.57" refX="-10.57" orient="auto" markerUnits="strokeWidth" overflow="visible" preserveAspectRatio="xMidYMid meet"><use xlink:href="#lend5" transform="scale(-6.04,-6.04) " xlink:type="simple" xlink:show="embed" xlink:actuate="onLoad"/></marker><marker id="mrkr5-105" class="st7" v:arrowType="5" v:arrowSize="2" v:setback="9.85" refX="9.85" orient="auto" markerUnits="strokeWidth" overflow="visible" preserveAspectRatio="xMidYMid meet"><use xlink:href="#lend5" transform="scale(6.04) " xlink:type="simple" xlink:show="embed" xlink:actuate="onLoad"/></marker></defs><g v:mID="0" v:index="1" v:groupContext="foregroundPage"><title>Page-1</title><v:pageProperties v:drawingScale="0.0393701" v:pageScale="0.0393701" v:drawingUnits="24" v:shadowOffsetX="8.50394" v:shadowOffsetY="-8.50394"/><v:layer v:name="Connector" v:index="0"/><g id="group128-1" transform="translate(0.375,-0.375)" v:mID="128" v:groupContext="group"><title>Sheet.128</title><g id="shape110-2" v:mID="110" v:groupContext="shape" transform="translate(656.245,1.21001) rotate(90)"><title>Sheet.110</title><path d="M0 238.99 L196.96 238.99" class="st1"/></g><g id="shape109-5" v:mID="109" v:groupContext="shape" transform="translate(557.082,1.24798) rotate(90)"><title>Sheet.109</title><path d="M0 238.99 L198.43 238.99" class="st1"/></g><g id="shape105-8" v:mID="105" v:groupContext="shape" transform="translate(457.85,0.875) rotate(90)"><title>Sheet.105</title><path d="M0 238.99 L199.17 238.99" class="st1"/></g><g id="shape99-11" v:mID="99" v:groupContext="shape" transform="translate(358.607,0.875) rotate(90)"><title>Sheet.99</title><path d="M0 238.99 L195.59 238.99" class="st1"/></g><g id="shape1-14" v:mID="1" v:groupContext="shape" transform="translate(-10.207,-114.731) rotate(-32.9052)"><title>Sheet.1</title><path d="M0 238.99 L114.79 238.99" class="st2"/></g><g id="shape2-17" v:mID="2" v:groupContext="shape" transform="translate(2.39808E-14,-195.591)"><title>Sheet.2</title><desc>CSG negative input (DAC ouput)</desc><v:textBlock v:margins="rect(4,4,4,4)" v:tabSpace="42.5197"/><v:textRect cx="42.8032" cy="232.715" width="85.61" height="12.5399"/><rect x="0" y="226.445" width="85.6063" height="12.5399" class="st3"/><text x="10.06" y="230.02" class="st4" v:langID="1033"><v:paragraph v:horizAlign="2"/><v:tabList/>CSG negative input<v:newlineChar/><tspan x="36.07" class="st5" dy="1.2em">(DAC ouput)</tspan></text></g><g id="shape7-21" v:mID="7" v:groupContext="shape" transform="translate(30.6142,-48.0444)"><title>Sheet.7</title><desc>PWM output</desc><v:textBlock v:margins="rect(4,4,4,4)" v:tabSpace="42.5197"/><v:textRect cx="28.433" cy="232.715" width="56.87" height="12.5399"/><rect x="0" y="226.445" width="56.8659" height="12.5399" class="st3"/><text x="6.61" y="235.42" class="st4" v:langID="1033"><v:paragraph v:horizAlign="2"/><v:tabList/>PWM output</text></g><g id="shape10-24" v:mID="10" v:groupContext="shape" transform="translate(20.4094,-120.152)"><title>Sheet.10</title><desc>CSG CMP OUT (Inverted)</desc><v:textBlock v:margins="rect(4,4,4,4)" v:tabSpace="42.5197"/><v:textRect cx="33.4612" cy="230.467" width="66.93" height="17.0362"/><rect x="0" y="221.949" width="66.9223" height="17.0362" class="st3"/><text x="10.44" y="227.77" class="st4" v:langID="1033"><v:paragraph v:horizAlign="2"/><v:tabList/>CSG CMP OUT <tspan x="25.89" class="st5" dy="1.2em">(Inverted)</tspan></text></g><g id="shape12-28" v:mID="12" v:groupContext="shape" transform="translate(457.871,23.5522) rotate(90)"><title>Sheet.12</title><path d="M0 238.99 L62.29 238.99" class="st2"/></g><g id="shape13-31" v:mID="13" v:groupContext="shape" transform="translate(89.3343,-114.76) rotate(-32.8923)"><title>Sheet.13</title><path d="M0 238.99 L114.66 238.99" class="st2"/></g><g id="shape18-34" v:mID="18" v:groupContext="shape" transform="translate(656.245,23.5149) rotate(90)"><title>Sheet.18</title><path d="M0 238.99 L62.02 238.99" class="st2"/></g><g id="shape22-37" v:mID="22" v:groupContext="shape" transform="translate(390.186,142.67) rotate(90)"><title>Sheet.22</title><path d="M0 238.99 L16.06 238.99" class="st6"/></g><g id="shape26-43" v:mID="26" v:groupContext="shape" transform="translate(5.66929,-166.747)"><title>Sheet.26</title><desc>CSG positive input</desc><v:textBlock v:margins="rect(4,4,4,4)" v:tabSpace="42.5197"/><v:textRect cx="40.3885" cy="232.715" width="80.78" height="12.5399"/><rect x="0" y="226.445" width="80.7769" height="12.5399" class="st3"/><text x="7.83" y="235.42" class="st4" v:langID="1033"><v:paragraph v:horizAlign="2"/><v:tabList/>CSG positive input</text></g><g id="shape79-46" v:mID="79" v:groupContext="shape" transform="translate(556.972,23.5522) rotate(90)"><title>Sheet.79</title><path d="M0 238.99 L62.42 238.99" class="st2"/></g><g id="shape80-49" v:mID="80" v:groupContext="shape" v:layerMember="0" transform="translate(88.2918,-173.585)"><title>Dynamic connector.80</title><path d="M0 238.99 L199.19 238.99 L263.2 212.44 L438.95 212.44" class="st8"/></g><g id="shape81-52" v:mID="81" v:groupContext="shape" v:layerMember="0" transform="translate(87.1728,-138.898)"><title>Dynamic connector.81</title><path d="M0 238.99 L32.45 238.99 L32.45 260.25 L63.91 260.25 L63.91 238.99 L131.66 238.99 L131.66 259.39 L163.64         259.39 L163.64 238.99 L230.87 238.99 L230.87 260.25 L301.8 260.25 L301.8 238.99 L330.09 238.99 L330.09         259.39 L400.95 259.39 L400.95 238.42 L429.58 238.42 L429.58 260.25 L436.39 260.25" class="st9"/></g><g id="shape82-55" v:mID="82" v:groupContext="shape" transform="translate(390.15,61.0491) rotate(90)"><title>Sheet.82</title><path d="M0 238.99 L80.64 238.99" class="st1"/></g><g id="shape83-58" v:mID="83" v:groupContext="shape" transform="translate(489.757,61.1585) rotate(90)"><title>Sheet.83</title><path d="M0 238.99 L80.21 238.99" class="st1"/></g><g id="shape85-61" v:mID="85" v:groupContext="shape" transform="translate(628.025,37.9774) rotate(90)"><title>Sheet.85</title><path d="M0 238.99 L103.88 238.99" class="st1"/></g><g id="shape86-64" v:mID="86" v:groupContext="shape" v:layerMember="0" transform="translate(86.7998,-53.8583)"><title>Dynamic connector.86</title><path d="M0 238.99 L32.82 238.99 L32.82 217.73 L64 217.73 L64 238.99 L132.03 238.99 L132.03 216.98 L163.78 216.98         L163.78 238.42 L231.25 238.42 L231.25 216.98 L301.83 216.98 L301.83 238.99 L330.46 238.99 L330.46 217.73         L401.33 217.73 L401.33 238.99 L429.67 238.99 L429.67 217.44 L436.76 217.44" class="st10"/></g><g id="shape87-67" v:mID="87" v:groupContext="shape" transform="translate(-119.289,162.823) rotate(-90)"><title>Sheet.87</title><path d="M0 238.99 L15.85 238.99" class="st6"/></g><g id="shape88-72" v:mID="88" v:groupContext="shape" transform="translate(489.731,142.359) rotate(90)"><title>Sheet.88</title><path d="M0 238.99 L15.03 238.99" class="st6"/></g><g id="shape89-77" v:mID="89" v:groupContext="shape" transform="translate(145.358,-87.4265)"><title>Sheet.89</title><desc>Kill PWM</desc><v:textBlock v:margins="rect(4,4,4,4)" v:tabSpace="42.5197"/><v:textRect cx="22.6772" cy="232.801" width="45.36" height="12.3694"/><rect x="0" y="226.616" width="45.3543" height="12.3694" class="st3"/><text x="6.41" y="235.5" class="st4" v:langID="1033"><v:paragraph v:horizAlign="1"/><v:tabList/>Kill PWM</text></g><g id="shape91-80" v:mID="91" v:groupContext="shape" transform="translate(628.053,142.607) rotate(90)"><title>Sheet.91</title><path d="M0 238.99 L15.83 238.99" class="st6"/></g><g id="shape93-85" v:mID="93" v:groupContext="shape" transform="translate(79.1565,162.733) rotate(-90)"><title>Sheet.93</title><path d="M0 238.99 L15.85 238.99" class="st6"/></g><g id="shape94-90" v:mID="94" v:groupContext="shape" transform="translate(82.7717,-2.84217E-14)"><title>Sheet.94</title><desc>TCPWM overflow event to trigger DAC start</desc><v:textBlock v:margins="rect(4,4,4,4)" v:tabSpace="42.5197"/><v:textRect cx="47.5176" cy="227.93" width="95.04" height="22.1102"/><rect x="0" y="216.875" width="95.0352" height="22.1102" class="st3"/><text x="4" y="225.23" class="st4" v:langID="1033"><v:paragraph/><v:tabList/>TCPWM overflow event <tspan x="4" class="st5" dy="1.2em">to trigger DAC start</tspan></text></g><g id="shape96-94" v:mID="96" v:groupContext="shape" transform="translate(237.857,-86.3075)"><title>Sheet.96</title><desc>Kill</desc><v:textBlock v:margins="rect(4,4,4,4)" v:tabSpace="42.5197"/><v:textRect cx="22.6772" cy="232.801" width="45.36" height="12.3694"/><rect x="0" y="226.616" width="45.3543" height="12.3694" class="st3"/><text x="16.67" y="235.5" class="st4" v:langID="1033"><v:paragraph v:horizAlign="1"/><v:tabList/>Kill</text></g><g id="shape97-97" v:mID="97" v:groupContext="shape" transform="translate(373.795,-86.0787)"><title>Sheet.97</title><desc>Kill</desc><v:textBlock v:margins="rect(4,4,4,4)" v:tabSpace="42.5197"/><v:textRect cx="22.6772" cy="232.801" width="45.36" height="12.3694"/><rect x="0" y="226.616" width="45.3543" height="12.3694" class="st3"/><text x="16.67" y="235.5" class="st4" v:langID="1033"><v:paragraph v:horizAlign="1"/><v:tabList/>Kill</text></g><g id="shape98-100" v:mID="98" v:groupContext="shape" transform="translate(355.607,161.203) rotate(81.6743)"><title>Sheet.98</title><path d="M4.66 236.71 L5 236.59 C8.35 233.79 12.29 229.67 14.23 232.32 C15.34 233.84 15.8 237.59 17.04 238.66 C18.68         240.06 21.67 236.82 23.49 238.31" class="st11"/></g><g id="shape100-106" v:mID="100" v:groupContext="shape" transform="translate(358.607,26.3868) rotate(90)"><title>Sheet.100</title><path d="M0 238.99 L59.68 238.99" class="st2"/></g><g id="shape101-109" v:mID="101" v:groupContext="shape" transform="translate(216.181,-215.493)"><title>Sheet.101</title><path d="M0 238.99 L2.63 238.99" class="st2"/></g><g id="shape103-112" v:mID="103" v:groupContext="shape" transform="translate(-42.699,-155.393) rotate(-32.4712)"><title>Sheet.103</title><path d="M0 238.99 L36.96 238.99" class="st2"/></g><g id="shape104-115" v:mID="104" v:groupContext="shape" transform="translate(116.836,-212.598) rotate(-0.000340855)"><title>Sheet.104</title><path d="M0 238.99 L2.73 238.99" class="st2"/></g><g id="shape107-118" v:mID="107" v:groupContext="shape" transform="translate(315.676,-215.433)"><title>Sheet.107</title><path d="M0 238.99 L2.24 238.99" class="st2"/></g><g id="shape108-121" v:mID="108" v:groupContext="shape" transform="translate(188.09,-114.556) rotate(-32.9823)"><title>Sheet.108</title><path d="M0 238.99 L114.56 238.99" class="st2"/></g><g id="shape111-124" v:mID="111" v:groupContext="shape" transform="translate(414.537,-215.47)"><title>Sheet.111</title><path d="M0 238.99 L2.61 238.99" class="st2"/></g><g id="shape112-127" v:mID="112" v:groupContext="shape" transform="translate(120.119,-229.881)"><title>Sheet.112</title><desc>PWM period</desc><v:textBlock v:margins="rect(4,4,4,4)" v:tabSpace="42.5197"/><v:textRect cx="49.5862" cy="238.985" width="99.18" height="0"/><path d="M4.93 238.99 L5.29 238.99 L93.89 238.99" class="st12"/><rect v:rectContext="textBkgnd" x="26.9964" y="233.585" width="45.1799" height="10.7998" class="st13"/><text x="27" y="241.69" class="st4" v:langID="1033"><v:paragraph v:horizAlign="1"/><v:tabList/>PWM period</text></g><g id="shape117-136" v:mID="117" v:groupContext="shape" transform="translate(755.628,1.30282) rotate(90)"><title>Sheet.117</title><path d="M0 238.99 L196.96 238.99" class="st1"/></g><g id="shape119-139" v:mID="119" v:groupContext="shape" transform="translate(755.542,23.5991) rotate(90)"><title>Sheet.119</title><path d="M0 238.99 L62.02 238.99" class="st2"/></g><g id="shape121-142" v:mID="121" v:groupContext="shape" transform="translate(727.322,38.0616) rotate(90)"><title>Sheet.121</title><path d="M0 238.99 L103.88 238.99" class="st1"/></g><g id="shape122-145" v:mID="122" v:groupContext="shape" transform="translate(727.351,142.692) rotate(90)"><title>Sheet.122</title><path d="M0 238.99 L15.83 238.99" class="st6"/></g><g id="shape123-150" v:mID="123" v:groupContext="shape" transform="translate(178.275,162.862) rotate(-90)"><title>Sheet.123</title><path d="M0 238.99 L15.85 238.99" class="st6"/></g><g id="shape124-155" v:mID="124" v:groupContext="shape" transform="translate(473.093,-85.9945)"><title>Sheet.124</title><desc>Kill</desc><v:textBlock v:margins="rect(4,4,4,4)" v:tabSpace="42.5197"/><v:textRect cx="22.6772" cy="232.801" width="45.36" height="12.3694"/><rect x="0" y="226.616" width="45.3543" height="12.3694" class="st3"/><text x="16.67" y="235.5" class="st4" v:langID="1033"><v:paragraph v:horizAlign="1"/><v:tabList/>Kill</text></g><g id="shape126-158" v:mID="126" v:groupContext="shape" transform="translate(287.388,-114.472) rotate(-32.9823)"><title>Sheet.126</title><path d="M0 238.99 L114.56 238.99" class="st2"/></g><g id="shape127-161" v:mID="127" v:groupContext="shape" transform="translate(513.834,-215.386)"><title>Sheet.127</title><path d="M0 238.99 L2.61 238.99" class="st2"/></g></g></g></svg>